Normalized EMG Linear Envelopes
nRows=38
nColumns=17

endheader
time	        VM	        VL	        RF	       GRA	        TA	   ADDLONG	   SEMIMEM	      BFLH	        GM	        GL	       TFL	   GLUTMAX	   GLUTMED	      PIRI	    OBTINT	        QF	
1.24	  0.120023	  0.065713	  0.313313	  0.314726	  0.571496	  0.200192	  0.037401	  0.079890	  0.083650	  0.029983	  0.282865	  0.033914	  0.116740	  0.499447	  0.168771	  0.221753	
1.2405	  0.121332	  0.066172	  0.312658	  0.311792	  0.568854	  0.199840	  0.037818	  0.079590	  0.083817	  0.030304	  0.280710	  0.034579	  0.119811	  0.504674	  0.172526	  0.223043	
1.241	  0.122654	  0.066634	  0.311975	  0.308859	  0.566149	  0.199485	  0.038261	  0.079300	  0.083990	  0.030641	  0.278527	  0.035267	  0.122936	  0.509938	  0.176350	  0.224341	
1.2415	  0.123988	  0.067100	  0.311263	  0.305928	  0.563382	  0.199126	  0.038733	  0.079023	  0.084171	  0.030993	  0.276317	  0.035981	  0.126115	  0.515235	  0.180244	  0.225645	
1.242	  0.125334	  0.067569	  0.310522	  0.303002	  0.560552	  0.198764	  0.039233	  0.078758	  0.084361	  0.031362	  0.274081	  0.036720	  0.129349	  0.520563	  0.184207	  0.226958	
1.2425	  0.126692	  0.068041	  0.309752	  0.300081	  0.557659	  0.198397	  0.039763	  0.078507	  0.084559	  0.031748	  0.271818	  0.037485	  0.132636	  0.525918	  0.188241	  0.228279	
1.243	  0.128062	  0.068515	  0.308954	  0.297167	  0.554702	  0.198027	  0.040323	  0.078271	  0.084767	  0.032150	  0.269528	  0.038275	  0.135979	  0.531297	  0.192344	  0.229609	
1.2435	  0.129444	  0.068992	  0.308126	  0.294263	  0.551680	  0.197652	  0.040913	  0.078050	  0.084984	  0.032570	  0.267213	  0.039093	  0.139376	  0.536697	  0.196518	  0.230949	
1.244	  0.130838	  0.069471	  0.307269	  0.291368	  0.548594	  0.197272	  0.041535	  0.077846	  0.085212	  0.033007	  0.264871	  0.039937	  0.142828	  0.542114	  0.200763	  0.232299	
1.2445	  0.132244	  0.069953	  0.306384	  0.288486	  0.545443	  0.196887	  0.042189	  0.077659	  0.085450	  0.033461	  0.262505	  0.040808	  0.146334	  0.547548	  0.205078	  0.233660	
1.245	  0.133661	  0.070436	  0.305470	  0.285617	  0.542226	  0.196497	  0.042877	  0.077490	  0.085699	  0.033934	  0.260113	  0.041707	  0.149896	  0.552996	  0.209464	  0.235031	
1.2455	  0.135088	  0.070921	  0.304527	  0.282762	  0.538942	  0.196100	  0.043598	  0.077341	  0.085960	  0.034424	  0.257697	  0.042633	  0.153513	  0.558454	  0.213922	  0.236413	
1.246	  0.136527	  0.071407	  0.303555	  0.279924	  0.535591	  0.195698	  0.044354	  0.077213	  0.086232	  0.034933	  0.255256	  0.043588	  0.157184	  0.563923	  0.218451	  0.237808	
1.2465	  0.137975	  0.071895	  0.302554	  0.277102	  0.532173	  0.195289	  0.045145	  0.077106	  0.086517	  0.035460	  0.252791	  0.044572	  0.160909	  0.569399	  0.223052	  0.239215	
1.247	  0.139434	  0.072384	  0.301524	  0.274298	  0.528688	  0.194872	  0.045973	  0.077021	  0.086813	  0.036006	  0.250302	  0.045585	  0.164690	  0.574881	  0.227724	  0.240636	
1.2475	  0.140901	  0.072874	  0.300465	  0.271514	  0.525136	  0.194448	  0.046838	  0.076960	  0.087123	  0.036571	  0.247789	  0.046627	  0.168524	  0.580367	  0.232470	  0.242071	
1.248	  0.142378	  0.073365	  0.299376	  0.268750	  0.521519	  0.194016	  0.047740	  0.076924	  0.087445	  0.037155	  0.245254	  0.047699	  0.172412	  0.585854	  0.237287	  0.243521	
1.2485	  0.143864	  0.073856	  0.298257	  0.266008	  0.517837	  0.193574	  0.048681	  0.076913	  0.087781	  0.037758	  0.242698	  0.048801	  0.176355	  0.591341	  0.242177	  0.244988	
1.249	  0.145357	  0.074348	  0.297108	  0.263287	  0.514091	  0.193124	  0.049662	  0.076928	  0.088130	  0.038381	  0.240120	  0.049934	  0.180350	  0.596826	  0.247140	  0.246472	
1.2495	  0.146858	  0.074840	  0.295927	  0.260589	  0.510281	  0.192664	  0.050682	  0.076971	  0.088492	  0.039023	  0.237522	  0.051097	  0.184399	  0.602306	  0.252176	  0.247973	
1.25	  0.148366	  0.075333	  0.294716	  0.257916	  0.506410	  0.192193	  0.051743	  0.077043	  0.088869	  0.039686	  0.234906	  0.052292	  0.188500	  0.607780	  0.257285	  0.249495	
1.2505	  0.149881	  0.075825	  0.293472	  0.255266	  0.502478	  0.191711	  0.052846	  0.077144	  0.089259	  0.040369	  0.232271	  0.053517	  0.192654	  0.613247	  0.262466	  0.251036	
1.251	  0.151402	  0.076318	  0.292195	  0.252642	  0.498485	  0.191216	  0.053991	  0.077275	  0.089664	  0.041072	  0.229621	  0.054775	  0.196859	  0.618703	  0.267720	  0.252598	
1.2515	  0.152928	  0.076812	  0.290884	  0.250043	  0.494433	  0.190709	  0.055179	  0.077437	  0.090083	  0.041795	  0.226955	  0.056064	  0.201115	  0.624149	  0.273046	  0.254183	
1.252	  0.154460	  0.077305	  0.289539	  0.247471	  0.490323	  0.190188	  0.056411	  0.077632	  0.090516	  0.042539	  0.224276	  0.057385	  0.205422	  0.629581	  0.278445	  0.255791	
1.2525	  0.155996	  0.077798	  0.288157	  0.244925	  0.486155	  0.189653	  0.057687	  0.077859	  0.090964	  0.043304	  0.221585	  0.058738	  0.209780	  0.634999	  0.283916	  0.257423	
1.253	  0.157536	  0.078292	  0.286739	  0.242408	  0.481931	  0.189102	  0.059008	  0.078120	  0.091427	  0.044089	  0.218882	  0.060125	  0.214186	  0.640401	  0.289458	  0.259080	
1.2535	  0.159078	  0.078785	  0.285284	  0.239918	  0.477652	  0.188535	  0.060375	  0.078416	  0.091904	  0.044896	  0.216171	  0.061543	  0.218641	  0.645785	  0.295072	  0.260764	
1.254	  0.160624	  0.079277	  0.283789	  0.237457	  0.473320	  0.187952	  0.061788	  0.078748	  0.092396	  0.045724	  0.213451	  0.062995	  0.223144	  0.651150	  0.300758	  0.262476	
1.2545	  0.162170	  0.079770	  0.282255	  0.235026	  0.468934	  0.187350	  0.063248	  0.079115	  0.092902	  0.046573	  0.210724	  0.064480	  0.227693	  0.656494	  0.306513	  0.264216	
1.255	  0.163718	  0.080261	  0.280680	  0.232625	  0.464497	  0.186730	  0.064756	  0.079520	  0.093424	  0.047443	  0.207991	  0.065998	  0.232289	  0.661815	  0.312339	  0.265986	
1.2555	  0.165265	  0.080752	  0.279062	  0.230255	  0.460011	  0.186091	  0.066311	  0.079963	  0.093960	  0.048335	  0.205253	  0.067550	  0.236929	  0.667110	  0.318234	  0.267785	
1.256	  0.166812	  0.081242	  0.277402	  0.227917	  0.455476	  0.185431	  0.067916	  0.080445	  0.094512	  0.049249	  0.202512	  0.069135	  0.241613	  0.672379	  0.324198	  0.269617	
1.2565	  0.168357	  0.081731	  0.275699	  0.225611	  0.450896	  0.184751	  0.069570	  0.080966	  0.095078	  0.050184	  0.199769	  0.070754	  0.246340	  0.677618	  0.330230	  0.271480	
1.257	  0.169899	  0.082219	  0.273951	  0.223337	  0.446271	  0.184048	  0.071273	  0.081527	  0.095659	  0.051141	  0.197025	  0.072407	  0.251108	  0.682826	  0.336329	  0.273377	
1.2575	  0.171437	  0.082706	  0.272159	  0.221096	  0.441603	  0.183323	  0.073027	  0.082129	  0.096255	  0.052120	  0.194280	  0.074093	  0.255917	  0.687998	  0.342494	  0.275307	
1.258	  0.172971	  0.083191	  0.270324	  0.218888	  0.436896	  0.182575	  0.074832	  0.082773	  0.096866	  0.053121	  0.191537	  0.075813	  0.260764	  0.693133	  0.348725	  0.277272	
1.2585	  0.174498	  0.083675	  0.268445	  0.216715	  0.432150	  0.181801	  0.076688	  0.083459	  0.097492	  0.054144	  0.188797	  0.077567	  0.265649	  0.698228	  0.355021	  0.279273	
